<svg xmlns="http://www.w3.org/2000/svg" width="22" height="22" viewBox="0 0 22 22"><defs><style>.a{opacity:0;}</style></defs><rect class="a" width="22" height="22"/><path d="M19,4.5H9.394a2.748,2.748,0,0,0-5.288,0H3a.5.5,0,0,0-.5.5v.5A.5.5,0,0,0,3,6H4.106A2.748,2.748,0,0,0,9.394,6H19a.5.5,0,0,0,.5-.5V5A.5.5,0,0,0,19,4.5ZM6.75,6.6A1.35,1.35,0,1,1,8.1,5.25,1.35,1.35,0,0,1,6.75,6.6Z"/><path d="M19,10H17.894a2.748,2.748,0,0,0-5.288,0H3a.5.5,0,0,0-.5.5V11a.5.5,0,0,0,.5.5h9.606a2.748,2.748,0,0,0,5.288,0H19a.5.5,0,0,0,.5-.5v-.5A.5.5,0,0,0,19,10Zm-3.75,2.1a1.35,1.35,0,1,1,1.35-1.35,1.35,1.35,0,0,1-1.35,1.35Z"/><path d="M19,15.5H13.394a2.748,2.748,0,0,0-5.288,0H3a.5.5,0,0,0-.5.5v.5A.5.5,0,0,0,3,17H8.106a2.748,2.748,0,0,0,5.288,0H19a.5.5,0,0,0,.5-.5V16A.5.5,0,0,0,19,15.5Zm-8.25,2.1a1.35,1.35,0,1,1,1.35-1.35,1.35,1.35,0,0,1-1.35,1.35Z"/></svg>